<mxfile host="app.diagrams.net" modified="2024-07-04T09:26:10.353Z" agent="Mozilla/5.0 (Macintosh; Intel Mac OS X 10_15_7) AppleWebKit/537.36 (KHTML, like Gecko) Chrome/126.0.0.0 Safari/537.36" etag="3bqZI_Hc8UTpcZGTQ1oQ" version="24.5.5" type="github" pages="2">
  <diagram name="Page-1" id="BKpQcnAzJsYx8kMFOtsU">
    <mxGraphModel dx="1080" dy="1805" grid="0" gridSize="10" guides="1" tooltips="1" connect="1" arrows="1" fold="1" page="1" pageScale="1" pageWidth="827" pageHeight="1169" math="0" shadow="0">
      <root>
        <mxCell id="0" />
        <mxCell id="1" parent="0" />
        <mxCell id="4rUR6nSV0EkuTnbCQLh4-3" value="&lt;font style=&quot;font-size: 20px;&quot;&gt;&lt;b&gt;Design a Rate Limiter&amp;nbsp;&lt;/b&gt;&lt;/font&gt;" style="text;html=1;align=center;verticalAlign=middle;resizable=0;points=[];autosize=1;strokeColor=none;fillColor=none;" vertex="1" parent="1">
          <mxGeometry x="296" y="-722" width="230" height="40" as="geometry" />
        </mxCell>
        <mxCell id="4rUR6nSV0EkuTnbCQLh4-4" value="&lt;blockquote style=&quot;margin: 0 0 0 40px; border: none; padding: 0px;&quot;&gt;&lt;div style=&quot;text-align: left;&quot;&gt;&lt;span style=&quot;background-color: initial;&quot;&gt;&lt;font style=&quot;font-size: 16px;&quot;&gt;&lt;b&gt;Why?&lt;/b&gt;&lt;/font&gt;&lt;/span&gt;&lt;/div&gt;&lt;/blockquote&gt;&lt;div style=&quot;&quot;&gt;&lt;ul&gt;&lt;li style=&quot;text-align: left;&quot;&gt;To stop DDOS attack&lt;/li&gt;&lt;li style=&quot;text-align: left;&quot;&gt;to prevent system resources&lt;/li&gt;&lt;li style=&quot;text-align: left;&quot;&gt;reduce company cost to save some server&lt;/li&gt;&lt;li style=&quot;text-align: left;&quot;&gt;Rate limiters limit the number of events a person, device, or IP address can do in a given time range.&amp;nbsp;&lt;/li&gt;&lt;li style=&quot;text-align: left;&quot;&gt;Rate limiters limit a sender&#39;s request volume. A rate limiter blocks requests after the cap is hit.&lt;/li&gt;&lt;li style=&quot;text-align: left;&quot;&gt;&amp;nbsp;They can help limit traffic to a website to prevent DDOS attacks.&amp;nbsp;&lt;br&gt;&lt;/li&gt;&lt;/ul&gt;&lt;div style=&quot;text-align: left;&quot;&gt;&lt;span style=&quot;white-space: pre;&quot;&gt;&#x9;&lt;/span&gt;&lt;br&gt;&lt;/div&gt;&lt;div style=&quot;text-align: left;&quot;&gt;&lt;br&gt;&lt;/div&gt;&lt;div style=&quot;text-align: left;&quot;&gt;&lt;br&gt;&lt;/div&gt;&lt;/div&gt;&lt;div style=&quot;text-align: left;&quot;&gt;We also inform the user we are blocking the request to send HTTP error code&amp;nbsp;&lt;/div&gt;&lt;div style=&quot;text-align: left;&quot;&gt;we can send 429 to many request&lt;/div&gt;&lt;div style=&quot;text-align: left;&quot;&gt;&lt;br&gt;&lt;/div&gt;&lt;div style=&quot;text-align: left;&quot;&gt;&lt;br&gt;&lt;/div&gt;&lt;div style=&quot;text-align: left;&quot;&gt;&lt;b&gt;HOW&lt;/b&gt;&lt;/div&gt;&lt;div style=&quot;text-align: left;&quot;&gt;to identify the specific IP and make rate limit&amp;nbsp;&lt;/div&gt;&lt;div style=&quot;text-align: left;&quot;&gt;we have multiple algorithem&amp;nbsp;&lt;/div&gt;&lt;div style=&quot;text-align: left;&quot;&gt;&lt;br&gt;&lt;/div&gt;&lt;div style=&quot;text-align: left;&quot;&gt;&lt;b&gt;we have token bucket algo&lt;/b&gt;&lt;/div&gt;&lt;div style=&quot;text-align: left;&quot;&gt;&lt;br&gt;&lt;/div&gt;&lt;div style=&quot;text-align: left;&quot;&gt;we have a token a&lt;/div&gt;&lt;div style=&quot;text-align: left;&quot;&gt;&lt;br&gt;&lt;/div&gt;&lt;div style=&quot;text-align: left;&quot;&gt;&lt;br&gt;&lt;/div&gt;&lt;div style=&quot;text-align: left;&quot;&gt;&lt;b&gt;we have fixed windows system algo&lt;/b&gt;&lt;/div&gt;&lt;div style=&quot;text-align: left;&quot;&gt;&lt;b&gt;&lt;br&gt;&lt;/b&gt;&lt;/div&gt;&lt;div style=&quot;text-align: left;&quot;&gt;&lt;b&gt;&lt;br&gt;&lt;/b&gt;&lt;/div&gt;&lt;div style=&quot;text-align: left;&quot;&gt;&lt;b&gt;&amp;nbsp;Requirement&lt;/b&gt;&lt;/div&gt;&lt;div style=&quot;text-align: left;&quot;&gt;&lt;b&gt;1: Server side&lt;/b&gt;&lt;/div&gt;&lt;div style=&quot;text-align: left;&quot;&gt;&lt;b&gt;block based IP user id&lt;/b&gt;&lt;/div&gt;&lt;div style=&quot;text-align: left;&quot;&gt;&lt;b&gt;send 439 HTTP request on blocing&lt;/b&gt;&lt;/div&gt;&lt;div style=&quot;text-align: left;&quot;&gt;&lt;b&gt;Loggin matching&lt;/b&gt;&lt;/div&gt;&lt;div style=&quot;text-align: left;&quot;&gt;&lt;b&gt;&lt;br&gt;&lt;/b&gt;&lt;/div&gt;&lt;div style=&quot;text-align: left;&quot;&gt;&lt;br&gt;&lt;/div&gt;&lt;div&gt;&lt;br&gt;&lt;/div&gt;" style="text;html=1;align=center;verticalAlign=middle;resizable=0;points=[];autosize=1;strokeColor=none;fillColor=none;" vertex="1" parent="1">
          <mxGeometry x="15" y="-638" width="595" height="530" as="geometry" />
        </mxCell>
        <mxCell id="4rUR6nSV0EkuTnbCQLh4-22" style="edgeStyle=orthogonalEdgeStyle;rounded=0;orthogonalLoop=1;jettySize=auto;html=1;entryX=0;entryY=0.5;entryDx=0;entryDy=0;strokeWidth=2;fillColor=#d5e8d4;strokeColor=#82b366;" edge="1" parent="1" source="4rUR6nSV0EkuTnbCQLh4-14" target="4rUR6nSV0EkuTnbCQLh4-15">
          <mxGeometry relative="1" as="geometry">
            <Array as="points">
              <mxPoint x="182" y="292" />
              <mxPoint x="182" y="292" />
            </Array>
          </mxGeometry>
        </mxCell>
        <mxCell id="4rUR6nSV0EkuTnbCQLh4-14" value="Client(s)" style="rounded=1;whiteSpace=wrap;html=1;" vertex="1" parent="1">
          <mxGeometry x="18" y="270" width="120" height="60" as="geometry" />
        </mxCell>
        <mxCell id="4rUR6nSV0EkuTnbCQLh4-16" style="edgeStyle=orthogonalEdgeStyle;rounded=0;orthogonalLoop=1;jettySize=auto;html=1;entryX=0.5;entryY=1;entryDx=0;entryDy=0;strokeWidth=2;exitX=0.5;exitY=1;exitDx=0;exitDy=0;fillColor=#f8cecc;strokeColor=#b85450;" edge="1" parent="1" source="4rUR6nSV0EkuTnbCQLh4-15" target="4rUR6nSV0EkuTnbCQLh4-14">
          <mxGeometry relative="1" as="geometry">
            <Array as="points">
              <mxPoint x="407" y="402" />
              <mxPoint x="78" y="402" />
            </Array>
          </mxGeometry>
        </mxCell>
        <mxCell id="4rUR6nSV0EkuTnbCQLh4-20" value="Failure 429 HTTP Code" style="edgeLabel;html=1;align=center;verticalAlign=middle;resizable=0;points=[];" vertex="1" connectable="0" parent="4rUR6nSV0EkuTnbCQLh4-16">
          <mxGeometry x="0.1304" y="-3" relative="1" as="geometry">
            <mxPoint x="15" as="offset" />
          </mxGeometry>
        </mxCell>
        <mxCell id="4rUR6nSV0EkuTnbCQLh4-15" value="API rate Limiter" style="rhombus;whiteSpace=wrap;html=1;" vertex="1" parent="1">
          <mxGeometry x="337" y="222" width="140" height="140" as="geometry" />
        </mxCell>
        <mxCell id="4rUR6nSV0EkuTnbCQLh4-41" value="" style="edgeStyle=orthogonalEdgeStyle;rounded=0;orthogonalLoop=1;jettySize=auto;html=1;" edge="1" parent="1" source="4rUR6nSV0EkuTnbCQLh4-18" target="4rUR6nSV0EkuTnbCQLh4-37">
          <mxGeometry relative="1" as="geometry" />
        </mxCell>
        <mxCell id="4rUR6nSV0EkuTnbCQLh4-18" value="Rule Engine" style="rounded=1;whiteSpace=wrap;html=1;" vertex="1" parent="1">
          <mxGeometry x="349" y="-14" width="120" height="60" as="geometry" />
        </mxCell>
        <mxCell id="4rUR6nSV0EkuTnbCQLh4-23" value="APi/web server" style="rounded=1;whiteSpace=wrap;html=1;" vertex="1" parent="1">
          <mxGeometry x="682" y="270" width="120" height="60" as="geometry" />
        </mxCell>
        <mxCell id="4rUR6nSV0EkuTnbCQLh4-24" style="edgeStyle=orthogonalEdgeStyle;rounded=0;orthogonalLoop=1;jettySize=auto;html=1;entryX=0.025;entryY=0.367;entryDx=0;entryDy=0;entryPerimeter=0;fillColor=#d5e8d4;strokeColor=#82b366;strokeWidth=2;" edge="1" parent="1" source="4rUR6nSV0EkuTnbCQLh4-15" target="4rUR6nSV0EkuTnbCQLh4-23">
          <mxGeometry relative="1" as="geometry" />
        </mxCell>
        <mxCell id="4rUR6nSV0EkuTnbCQLh4-25" value="Success" style="edgeLabel;html=1;align=center;verticalAlign=middle;resizable=0;points=[];" vertex="1" connectable="0" parent="4rUR6nSV0EkuTnbCQLh4-24">
          <mxGeometry x="-0.2669" relative="1" as="geometry">
            <mxPoint as="offset" />
          </mxGeometry>
        </mxCell>
        <mxCell id="4rUR6nSV0EkuTnbCQLh4-26" value="" style="endArrow=classic;html=1;rounded=0;entryX=1;entryY=0.75;entryDx=0;entryDy=0;exitX=0.093;exitY=0.636;exitDx=0;exitDy=0;exitPerimeter=0;fillColor=#d5e8d4;strokeColor=#82b366;strokeWidth=2;" edge="1" parent="1" source="4rUR6nSV0EkuTnbCQLh4-15" target="4rUR6nSV0EkuTnbCQLh4-14">
          <mxGeometry width="50" height="50" relative="1" as="geometry">
            <mxPoint x="245" y="380" as="sourcePoint" />
            <mxPoint x="295" y="330" as="targetPoint" />
          </mxGeometry>
        </mxCell>
        <mxCell id="4rUR6nSV0EkuTnbCQLh4-27" value="200 HTTP" style="edgeLabel;html=1;align=center;verticalAlign=middle;resizable=0;points=[];" vertex="1" connectable="0" parent="4rUR6nSV0EkuTnbCQLh4-26">
          <mxGeometry x="0.0279" y="-3" relative="1" as="geometry">
            <mxPoint as="offset" />
          </mxGeometry>
        </mxCell>
        <mxCell id="4rUR6nSV0EkuTnbCQLh4-34" value="" style="edgeStyle=orthogonalEdgeStyle;rounded=0;orthogonalLoop=1;jettySize=auto;html=1;" edge="1" parent="1" source="4rUR6nSV0EkuTnbCQLh4-28" target="4rUR6nSV0EkuTnbCQLh4-30">
          <mxGeometry relative="1" as="geometry" />
        </mxCell>
        <mxCell id="4rUR6nSV0EkuTnbCQLh4-28" value="Cache(High throughput)" style="shape=cylinder3;whiteSpace=wrap;html=1;boundedLbl=1;backgroundOutline=1;size=15;" vertex="1" parent="1">
          <mxGeometry x="526" y="438" width="107" height="104" as="geometry" />
        </mxCell>
        <mxCell id="4rUR6nSV0EkuTnbCQLh4-29" value="" style="endArrow=classic;html=1;rounded=0;entryX=0.047;entryY=0.058;entryDx=0;entryDy=0;entryPerimeter=0;" edge="1" parent="1" source="4rUR6nSV0EkuTnbCQLh4-15" target="4rUR6nSV0EkuTnbCQLh4-28">
          <mxGeometry width="50" height="50" relative="1" as="geometry">
            <mxPoint x="535" y="435" as="sourcePoint" />
            <mxPoint x="493" y="448" as="targetPoint" />
          </mxGeometry>
        </mxCell>
        <mxCell id="4rUR6nSV0EkuTnbCQLh4-35" value="" style="edgeStyle=orthogonalEdgeStyle;rounded=0;orthogonalLoop=1;jettySize=auto;html=1;" edge="1" parent="1" source="4rUR6nSV0EkuTnbCQLh4-30" target="4rUR6nSV0EkuTnbCQLh4-32">
          <mxGeometry relative="1" as="geometry" />
        </mxCell>
        <mxCell id="4rUR6nSV0EkuTnbCQLh4-30" value="Logging machenism" style="rounded=0;whiteSpace=wrap;html=1;" vertex="1" parent="1">
          <mxGeometry x="520" y="661" width="120" height="60" as="geometry" />
        </mxCell>
        <mxCell id="4rUR6nSV0EkuTnbCQLh4-32" value="long term storage" style="shape=cylinder3;whiteSpace=wrap;html=1;boundedLbl=1;backgroundOutline=1;size=15;" vertex="1" parent="1">
          <mxGeometry x="493.5" y="809" width="173" height="80" as="geometry" />
        </mxCell>
        <mxCell id="4rUR6nSV0EkuTnbCQLh4-42" value="" style="edgeStyle=orthogonalEdgeStyle;rounded=0;orthogonalLoop=1;jettySize=auto;html=1;exitX=0.642;exitY=1.008;exitDx=0;exitDy=0;exitPerimeter=0;" edge="1" parent="1" source="4rUR6nSV0EkuTnbCQLh4-37" target="4rUR6nSV0EkuTnbCQLh4-15">
          <mxGeometry relative="1" as="geometry">
            <mxPoint x="417" y="224" as="targetPoint" />
          </mxGeometry>
        </mxCell>
        <mxCell id="4rUR6nSV0EkuTnbCQLh4-37" value="Rule cache" style="rounded=0;whiteSpace=wrap;html=1;" vertex="1" parent="1">
          <mxGeometry x="349" y="103" width="120" height="59" as="geometry" />
        </mxCell>
        <mxCell id="4rUR6nSV0EkuTnbCQLh4-39" value="" style="endArrow=classic;html=1;rounded=0;exitX=0.386;exitY=0.064;exitDx=0;exitDy=0;exitPerimeter=0;" edge="1" parent="1" source="4rUR6nSV0EkuTnbCQLh4-15">
          <mxGeometry width="50" height="50" relative="1" as="geometry">
            <mxPoint x="297" y="102" as="sourcePoint" />
            <mxPoint x="387" y="164" as="targetPoint" />
          </mxGeometry>
        </mxCell>
        <mxCell id="4rUR6nSV0EkuTnbCQLh4-43" value="" style="endArrow=classic;html=1;rounded=0;entryX=0.9;entryY=0.625;entryDx=0;entryDy=0;entryPerimeter=0;" edge="1" parent="1" target="4rUR6nSV0EkuTnbCQLh4-15">
          <mxGeometry width="50" height="50" relative="1" as="geometry">
            <mxPoint x="678" y="314" as="sourcePoint" />
            <mxPoint x="347" y="176" as="targetPoint" />
          </mxGeometry>
        </mxCell>
        <mxCell id="4rUR6nSV0EkuTnbCQLh4-44" value="load balancer" style="rounded=1;whiteSpace=wrap;html=1;" vertex="1" parent="1">
          <mxGeometry x="163" y="201" width="120" height="60" as="geometry" />
        </mxCell>
      </root>
    </mxGraphModel>
  </diagram>
  <diagram id="lyae7qE5hnIcT3OrFedc" name="Page-2">
    <mxGraphModel grid="0" page="1" gridSize="10" guides="1" tooltips="1" connect="1" arrows="1" fold="1" pageScale="1" pageWidth="827" pageHeight="1169" math="0" shadow="0">
      <root>
        <mxCell id="0" />
        <mxCell id="1" parent="0" />
      </root>
    </mxGraphModel>
  </diagram>
</mxfile>
